<?xml version="1.0" encoding="utf-8"?>
<!-- Generator: Adobe Illustrator 27.9.0, SVG Export Plug-In . SVG Version: 6.00 Build 0)  -->
<svg version="1.1" id="Layer_1" xmlns="http://www.w3.org/2000/svg" xmlns:xlink="http://www.w3.org/1999/xlink" x="0px" y="0px"
	 viewBox="0 0 100 100" style="enable-background:new 0 0 100 100;" xml:space="preserve">
<style type="text/css">
	.st0{fill:#FFFFFF;}
</style>
<g>
	<g>
		<path class="st0" d="M49.9,38.9c3.7,0,7.5,0,11.2,0c0.5,0,0.6,0,0.6,0.6c0,2.1,0,4.2,0,6.3c0,0.5,0,0.6-0.6,0.6
			c-7.5,0-14.9,0-22.4,0c-0.6,0-0.6,0-0.6-0.6c0-2.1,0-4.3,0-6.4c0-0.4,0.1-0.5,0.5-0.5C42.4,38.9,46.1,38.9,49.9,38.9z"/>
		<path class="st0" d="M49.9,61.2c-3.7,0-7.4,0-11.2,0c-0.6,0-0.6,0-0.6-0.6c0-2.1,0-4.3,0-6.4c0-0.4,0.1-0.5,0.5-0.5
			c7.5,0,15,0,22.4,0c0.5,0,0.6,0,0.6,0.6c0,2.1,0,4.2,0,6.3c0,0.6,0,0.6-0.6,0.6C57.3,61.2,53.6,61.2,49.9,61.2z"/>
		<path class="st0" d="M28.5,38.7c0.1,0.3,0.1,0.5,0.1,0.7c0,3.8,0,7.6,0,11.5c0,3.3,0,6.6,0,9.9c0,0.1,0,0.3,0,0.4
			c-0.1,0.1-0.2,0.1-0.3,0.1s-0.2-0.1-0.2-0.2c-3.5-3.5-7-7-10.5-10.5c-0.4-0.4-0.4-0.5,0-0.8c3.5-3.5,7-7,10.6-10.6
			C28.1,38.9,28.3,38.8,28.5,38.7z"/>
		<path class="st0" d="M49.9,71.3c3.6,0,7.1,0,10.7,0c0.2,0,0.3,0.1,0.5,0.1c-0.1,0.1-0.1,0.3-0.2,0.4c-3.5,3.5-7,7-10.6,10.6
			c-0.4,0.4-0.4,0.4-0.8,0c-3.5-3.5-7-7-10.6-10.6c-0.1-0.1-0.1-0.1-0.2-0.2c-0.1-0.2-0.1-0.3,0.1-0.3c0.1,0,0.2,0,0.4,0
			C42.8,71.3,46.3,71.3,49.9,71.3z"/>
		<path class="st0" d="M49.9,28.7c-3.6,0-7.2,0-10.8,0c-0.2,0-0.3-0.1-0.5-0.1c0.1-0.1,0.1-0.3,0.2-0.4c3.5-3.5,7-7,10.6-10.6
			c0.4-0.4,0.4-0.4,0.8,0c3.5,3.5,7,7,10.5,10.5c0.1,0.1,0.2,0.2,0.2,0.2c0,0.1-0.1,0.3-0.1,0.3c-0.1,0.1-0.2,0-0.3,0
			C57,28.7,53.5,28.7,49.9,28.7z"/>
		<path class="st0" d="M71.3,38.7c0.2,0.2,0.4,0.3,0.5,0.4c3.5,3.5,7,7,10.6,10.6c0.4,0.4,0.4,0.4,0,0.8c-3.6,3.4-7.2,7-10.7,10.5
			c-0.1,0.1-0.3,0.2-0.4,0.2c0-0.2-0.1-0.3-0.1-0.5c0-7.2,0-14.4,0-21.5C71.2,39.1,71.2,38.9,71.3,38.7z"/>
	</g>
</g>
</svg>
