<?xml version="1.0" encoding="utf-8"?>
<!-- Generator: Adobe Illustrator 27.9.0, SVG Export Plug-In . SVG Version: 6.00 Build 0)  -->
<svg version="1.1" id="Layer_1" xmlns="http://www.w3.org/2000/svg" xmlns:xlink="http://www.w3.org/1999/xlink" x="0px" y="0px"
	 viewBox="0 0 100 100" style="enable-background:new 0 0 100 100;" xml:space="preserve">
<style type="text/css">
	.st0{fill:#FFFFFF;}
</style>
<g>
	<g>
		<path class="st0" d="M49,50c0,10.3,0,20.6,0,30.9c0,0.2,0.1,0.4,0,0.5c-0.1,0.2-0.2,0.3-0.4,0.4c-0.1,0.1-0.2,0-0.3,0
			c-5.9,0-11.8,0-17.7,0c-0.7,0-0.8-0.1-0.8-0.8c0-20.7,0-41.4,0-62.1c0-0.7,0.1-0.8,0.8-0.8c5.9,0,11.8,0,17.7,0
			c0.7,0,0.7,0,0.7,0.7C49,29.3,49,39.6,49,50z M45.9,72.3c0-0.7,0-1.4,0-2.1c0-0.4-0.1-0.5-0.5-0.5c-1.3,0-2.5,0-3.8,0
			c-0.3,0-0.5,0.1-0.5,0.5c0,1.4,0,2.9,0,4.3c0,0.3,0.2,0.5,0.5,0.5c1.3,0,2.6,0,3.8,0c0.3,0,0.5-0.2,0.5-0.5
			C45.9,73.7,45.9,73,45.9,72.3z M37.7,72.3c0-0.7,0-1.4,0-2.2c0-0.3-0.1-0.5-0.5-0.5c-1.3,0-2.6,0-3.8,0c-0.3,0-0.5,0.2-0.5,0.5
			c0,1.4,0,2.8,0,4.3c0,0.3,0.2,0.5,0.5,0.5c1.3,0,2.6,0,3.8,0c0.3,0,0.5-0.2,0.5-0.5C37.7,73.8,37.7,73.1,37.7,72.3z M37.7,50.8
			c0-0.7,0-1.4,0-2.1c0-0.5-0.1-0.6-0.6-0.6c-1.2,0-2.4,0-3.7,0c-0.4,0-0.6,0.2-0.6,0.6c0,1.4,0,2.8,0,4.2c0,0.4,0.1,0.5,0.5,0.5
			c1.3,0,2.5,0,3.8,0c0.3,0,0.5-0.1,0.5-0.5C37.7,52.2,37.7,51.5,37.7,50.8z M45.9,50.8c0-0.7,0-1.4,0-2.1c0-0.4-0.1-0.6-0.5-0.6
			c-1.3,0-2.5,0-3.8,0c-0.4,0-0.5,0.2-0.5,0.5c0,1.4,0,2.8,0,4.2c0,0.3,0.1,0.5,0.5,0.5c1.3,0,2.5,0,3.8,0c0.3,0,0.5-0.1,0.5-0.5
			C45.9,52.2,45.9,51.5,45.9,50.8z M37.7,40c0-0.7,0-1.4,0-2.1c0-0.3-0.1-0.5-0.5-0.5c-1.3,0-2.5,0-3.8,0c-0.4,0-0.5,0.2-0.5,0.5
			c0,1.4,0,2.8,0,4.2c0,0.4,0.2,0.6,0.6,0.6c1.2,0,2.5,0,3.8,0c0.4,0,0.5-0.2,0.5-0.5C37.7,41.4,37.7,40.7,37.7,40z M45.9,40
			c0-0.7,0-1.4,0-2.2c0-0.3-0.1-0.5-0.5-0.5c-1.3,0-2.5,0-3.8,0c-0.3,0-0.5,0.2-0.5,0.5c0,1.4,0,2.9,0,4.3c0,0.3,0.2,0.5,0.5,0.5
			c1.3,0,2.5,0,3.8,0c0.3,0,0.5-0.1,0.5-0.5C45.9,41.4,45.9,40.7,45.9,40z M37.7,61.5c0-0.7,0-1.4,0-2.1c0-0.3-0.1-0.5-0.5-0.5
			c-1.3,0-2.6,0-3.8,0c-0.4,0-0.5,0.2-0.5,0.5c0,1.4,0,2.8,0,4.2c0,0.3,0.1,0.5,0.5,0.5c1.3,0,2.6,0,3.8,0c0.3,0,0.5-0.1,0.5-0.5
			C37.7,63,37.7,62.3,37.7,61.5z M37.7,29.2c0-0.7,0-1.4,0-2.1c0-0.4-0.1-0.6-0.5-0.6c-1.3,0-2.5,0-3.8,0c-0.4,0-0.5,0.1-0.5,0.5
			c0,1.4,0,2.8,0,4.2c0,0.3,0.1,0.5,0.5,0.5c1.3,0,2.6,0,3.8,0c0.4,0,0.5-0.2,0.5-0.5C37.7,30.6,37.7,29.9,37.7,29.2z M45.9,29.3
			c0-0.7,0-1.4,0-2.1c0-0.4-0.1-0.5-0.5-0.5c-1.3,0-2.5,0-3.8,0c-0.3,0-0.5,0.1-0.5,0.5c0,1.4,0,2.9,0,4.3c0,0.3,0.1,0.5,0.5,0.5
			c1.3,0,2.6,0,3.9,0c0.3,0,0.5-0.1,0.5-0.5C45.9,30.7,45.9,29.9,45.9,29.3z M45.9,61.5c0-0.7,0-1.4,0-2.1c0-0.3-0.1-0.5-0.5-0.5
			c-1.3,0-2.6,0-3.8,0c-0.4,0-0.5,0.2-0.5,0.5c0,1.4,0,2.8,0,4.2c0,0.3,0.1,0.5,0.5,0.5c1.3,0,2.6,0,3.8,0c0.3,0,0.5-0.1,0.5-0.5
			C45.9,63,45.9,62.3,45.9,61.5z"/>
		<path class="st0" d="M70.8,55.8c0,8.4,0,16.8,0,25.2c0,0.7-0.1,0.8-0.7,0.8c-5.9,0-11.8,0-17.7,0c-0.6,0-0.7-0.1-0.7-0.7
			c0-9.2,0-18.3,0-27.5c0-0.3,0.1-0.6,0.3-0.9c4.3-5.4,8.5-10.8,12.8-16.2c1.6-2.1,3.3-4.2,4.9-6.3c0.1-0.1,0.2-0.3,0.3-0.4
			c0.1-0.1,0.3-0.2,0.5-0.2c0.1,0,0.2,0.2,0.3,0.4c0.1,0.1,0,0.3,0,0.5C70.8,39,70.8,47.4,70.8,55.8z M60.4,51.6L60.4,51.6
			c0-1.2,0-2.4,0-3.6c0-0.3-0.1-0.6-0.4-0.7s-0.5,0.1-0.7,0.3c-1.6,2.1-3.3,4.1-5,6.2c-0.3,0.4-0.5,0.9-0.4,1.4
			c0,0.6,0.2,0.8,0.8,0.8c1.6,0,3.2,0,4.8,0c0.8,0,0.9-0.1,0.9-1C60.4,53.9,60.4,52.8,60.4,51.6z M65.5,49.7c0.9,0,1.7,0,2.5,0
			c0.5,0,0.7-0.2,0.7-0.7c0-1,0-2,0-3.1c0-0.4-0.2-0.7-0.6-0.7c-1.8,0-3.5,0-5.2,0c-0.5,0-0.6,0.2-0.6,0.7c0,1,0,2.1,0,3.1
			c0,0.5,0.2,0.7,0.7,0.7C63.8,49.7,64.7,49.7,65.5,49.7z M57.1,64.3c-0.9,0-1.7,0-2.6,0c-0.5,0-0.6,0.2-0.6,0.6c0,1.1,0,2.1,0,3.2
			c0,0.5,0.2,0.6,0.7,0.6c1.7,0,3.4,0,5.2,0c0.5,0,0.6-0.2,0.6-0.6c0-1,0-2.1,0-3.1c0-0.5-0.1-0.6-0.7-0.6
			C58.9,64.3,58,64.3,57.1,64.3z M65.5,56c0.9,0,1.7,0,2.6,0c0.5,0,0.7-0.2,0.7-0.7c0-1,0-2,0-3c0-0.5-0.2-0.6-0.7-0.6
			c-1.7,0-3.5,0-5.2,0c-0.5,0-0.6,0.1-0.6,0.6c0,1,0,2,0,3.1c0,0.5,0.2,0.7,0.7,0.7C63.8,56,64.7,56,65.5,56z M65.5,64.3
			c-0.9,0-1.7,0-2.6,0c-0.5,0-0.6,0.2-0.6,0.6c0,1,0,2.1,0,3.1c0,0.5,0.2,0.7,0.6,0.7c1.7,0,3.4,0,5.2,0c0.5,0,0.7-0.2,0.7-0.7
			c0-1,0-2.1,0-3.1c0-0.5-0.2-0.6-0.6-0.6C67.2,64.3,66.4,64.3,65.5,64.3z M57.2,75c0.9,0,1.7,0,2.5,0c0.5,0,0.7-0.2,0.7-0.7
			c0-1,0-2,0-3c0-0.6-0.1-0.7-0.7-0.7c-1.7,0-3.4,0-5.1,0c-0.5,0-0.7,0.2-0.7,0.7c0,1,0,2,0,3c0,0.5,0.2,0.7,0.7,0.7
			C55.4,75,56.3,75,57.2,75z M65.5,57.9c-0.9,0-1.7,0-2.6,0c-0.5,0-0.7,0.1-0.7,0.7c0,1,0,2,0,3c0,0.5,0.2,0.7,0.7,0.7
			c1.7,0,3.4,0,5.1,0c0.5,0,0.7-0.2,0.7-0.7c0-1,0-2,0-3c0-0.5-0.2-0.7-0.7-0.7C67.2,57.9,66.4,57.9,65.5,57.9z M65.5,70.6
			c-0.9,0-1.7,0-2.6,0c-0.5,0-0.7,0.2-0.7,0.6c0,1,0,2.1,0,3.1c0,0.5,0.2,0.6,0.7,0.6c1.7,0,3.4,0,5.1,0c0.5,0,0.7-0.2,0.7-0.7
			c0-1,0-2,0-3c0-0.5-0.2-0.7-0.7-0.7C67.2,70.6,66.4,70.6,65.5,70.6z M57.2,57.9c-0.9,0-1.8,0-2.6,0c-0.5,0-0.6,0.2-0.6,0.6
			c0,1,0,2.1,0,3.1c0,0.5,0.2,0.7,0.7,0.7c1.7,0,3.4,0,5.2,0c0.5,0,0.6-0.2,0.6-0.7c0-1,0-2.1,0-3.1c0-0.5-0.1-0.6-0.6-0.6
			C58.9,57.9,58,57.9,57.2,57.9z M68.8,39.9L68.8,39.9c0-0.9,0-1.8,0-2.7c0-0.3-0.1-0.6-0.4-0.7c-0.2,0-0.5,0.1-0.7,0.3
			c-1.5,1.8-3,3.6-4.4,5.5c-0.1,0.2-0.2,0.5-0.1,0.7c0.1,0.3,0.4,0.3,0.6,0.3c1.4,0,2.7,0,4.1,0c0.7,0,0.9-0.2,0.9-0.9
			C68.8,41.5,68.8,40.7,68.8,39.9z"/>
		<path class="st0" d="M73.1,72c0-3.1,0-6.1,0-9.2c0-0.6,0.1-0.7,0.7-0.7c6.1,0,12.1,0,18.2,0c0.6,0,0.7,0.1,0.7,0.7
			c0,6.1,0,12.2,0,18.3c0,0.6-0.1,0.7-0.7,0.7c-6.1,0-12.1,0-18.2,0c-0.6,0-0.7-0.1-0.7-0.7C73.1,78.2,73.1,75.1,73.1,72z
			 M87.3,64.3c-0.9,0-1.8,0-2.6,0c-0.6,0-0.7,0.2-0.7,0.8c0,1,0,1.9,0,2.9c0,0.5,0.2,0.7,0.7,0.8c1.8,0,3.5,0,5.2,0
			c0.5,0,0.7-0.2,0.7-0.7c0-1,0-2,0-3c0-0.6-0.2-0.7-0.7-0.7C89,64.3,88.2,64.3,87.3,64.3z M78.7,64.3L78.7,64.3c-0.9,0-1.8,0-2.6,0
			c-0.5,0-0.7,0.2-0.7,0.7c0,1,0,2,0,3c0,0.5,0.2,0.7,0.7,0.7c1.8,0,3.5,0,5.3,0c0.5,0,0.7-0.2,0.7-0.7c0-1,0-2,0-3
			c0-0.6-0.2-0.8-0.8-0.8C80.4,64.3,79.6,64.3,78.7,64.3z M78.7,75c0.9,0,1.8,0,2.6,0c0.5,0,0.7-0.2,0.7-0.7c0-1,0-2,0-3
			c0-0.5-0.2-0.7-0.7-0.7c-1.7,0-3.5,0-5.2,0c-0.5,0-0.7,0.2-0.7,0.7c0,1,0,2,0,3c0,0.5,0.2,0.7,0.7,0.7C77,75,77.9,75,78.7,75z
			 M87.3,75c0.9,0,1.8,0,2.7,0c0.5,0,0.7-0.2,0.7-0.7c0-1,0-2,0-3c0-0.5-0.2-0.7-0.7-0.7c-1.8,0-3.5,0-5.3,0c-0.5,0-0.7,0.2-0.7,0.7
			c0,1,0,2,0,3c0,0.5,0.2,0.7,0.7,0.7C85.6,75,86.4,75,87.3,75z"/>
		<path class="st0" d="M17.2,66.1c3.1,0,6.1,0,9.2,0c0.6,0,0.7,0.1,0.7,0.7c0,4.8,0,9.5,0,14.3c0,0.6-0.1,0.7-0.7,0.7
			c-1.8,0-3.6,0-5.4,0c-0.4,0-0.5-0.1-0.5-0.5c0-2.8,0-5.6,0-8.5c0-0.7-0.1-0.9-0.9-0.9c-1.7,0-3.4,0-5,0c-0.6,0-0.8,0.2-0.8,0.8
			c0,2.8,0,5.7,0,8.5c0,0.4-0.1,0.5-0.5,0.5c-1.8,0-3.5,0-5.2,0c-0.6,0-0.7-0.1-0.7-0.7c0-4.8,0-9.5,0-14.3c0-0.6,0.1-0.7,0.7-0.7
			C11,66.1,14.1,66.1,17.2,66.1z"/>
		<path class="st0" d="M17.3,64.3c-3,0-6,0-9,0c-0.1,0-0.2,0-0.3,0c-0.2-0.1-0.4-0.1-0.5-0.3c-0.1-0.1,0-0.4,0.1-0.5
			c0.9-1.2,1.8-2.4,2.7-3.5c2.1-2.8,4.3-5.6,6.4-8.4c0.5-0.6,0.6-0.6,1.1,0c3.1,4,6.1,7.9,9.2,11.9c0.1,0.2,0.2,0.5,0.1,0.6
			c-0.1,0.2-0.4,0.3-0.6,0.3C23.4,64.3,20.3,64.3,17.3,64.3z"/>
		<path class="st0" d="M82.9,60.5c-3,0-6.1,0-9.1,0c-0.7,0-0.7,0-0.7-0.7c0-1,0-2.1,0-3.1c0-0.6,0.1-0.6,0.6-0.6c4.5,0,8.9,0,13.4,0
			c1.6,0,3.2,0,4.9,0c0.5,0,0.6,0.1,0.6,0.6c0,1.1,0,2.2,0,3.2c0,0.5-0.1,0.6-0.6,0.6C89,60.5,85.9,60.5,82.9,60.5z"/>
	</g>
</g>
</svg>
