<?xml version="1.0" encoding="utf-8"?>
<!-- Generator: Adobe Illustrator 27.9.0, SVG Export Plug-In . SVG Version: 6.00 Build 0)  -->
<svg version="1.1" id="Layer_1" xmlns="http://www.w3.org/2000/svg" xmlns:xlink="http://www.w3.org/1999/xlink" x="0px" y="0px"
	 viewBox="0 0 100 100" style="enable-background:new 0 0 100 100;" xml:space="preserve">
<style type="text/css">
	.st0{fill:#FFFFFF;}
</style>
<g>
	<g>
		<path class="st0" d="M3.4,50c9.2-12.9,26.1-23.9,47.3-23.7C72,26.5,88.2,38.2,96.6,50.1C74.5,81.1,26.8,82.3,3.4,50z M44.1,49
			c0.1,0,0.1,0,0.2,0c0.1,0.1,0.2,0.2,0.4,0.3c0.5,0.6,1.1,1.2,1.6,1.8c0.3,0.3,0.7,0.7,1.2,0.6c0.8-0.1,1.5-0.5,2-1.2
			c0.3-0.4,0.3-0.8-0.1-1.2c-0.2-0.3-0.5-0.5-0.7-0.7c-0.7-0.7-1.4-1.4-2.1-2.1c-0.1-0.1-0.1-0.4-0.1-0.5c0.2,0,0.4,0,0.5,0.1
			c0.1,0,0.1,0.1,0.2,0.1c0.8,0.5,1.5,0.9,2.3,1.4c0.4,0.2,0.7,0.6,0.8,1.1c0.2,1,0.7,1.5,1.7,1.8c0.1,0,0.2,0.1,0.3,0.1
			c1.2,0.3,2.4,0.8,3.3,1.8c0.2,0.3,0.5,0.3,0.8,0c0.5-0.7,1.1-1.5,0.8-2.5c-0.1-0.3,0-0.6,0.3-0.8c0.7-0.4,1.4-0.2,1.7,0.6
			c0.3,0.9,0.7,1.7,1,2.6c0.6,1.5,1.8,2.2,3.1,3c0.1,0.1,0.4,0,0.5-0.1s0.1-0.3,0.1-0.5c-0.2-0.4-0.4-0.9-0.6-1.2
			c-0.6-0.9-0.5-1.8,0.1-2.7c0.2-0.3,0.5-0.5,0.8-0.6c0.6-0.2,1.2-0.5,1.8-0.8c0.6-0.3,0.6-0.6,0.3-1.2c-0.3-0.5-0.4-0.9-0.3-1.4
			c0-0.4,0.3-0.5,0.6-0.3c0.2,0.1,0.3,0.3,0.5,0.5c0.6,0.7,1.7,0.7,2.1-0.1c0.2-0.4,0.3-1,0.2-1.4c-0.9-3.7-2.8-6.9-5.6-9.5
			c-4.3-3.9-9.3-5.6-15.1-5.1c-2.9,0.3-5.6,1.2-8.1,2.7c-0.1,0.1-0.2,0.1-0.3,0.2c0.3,0.1,0.5,0.1,0.7,0c1.2-0.1,2.3-0.2,3.5-0.2
			c0.5,0,1,0.1,1.4,0.3c0.5,0.2,0.6,0.5,0.5,1c-0.1,0.5,0,0.9,0.4,1.3c0.3,0.3,0.7,0.5,1,0.8s0.3,0.5-0.1,0.7
			c-0.8,0.5-1.5,0.9-2.3,1.3c-0.2,0.1-0.5,0.2-0.8,0.3c-0.2,0-0.3-0.1-0.5-0.2c0.1-0.1,0.1-0.3,0.2-0.4c0.3-0.2,0.6-0.4,0.9-0.6
			c0.3-0.2,0.6-0.3,0.9-0.5c0.3-0.2,0.3-0.4-0.1-0.5c-0.4-0.1-0.8-0.2-1.2-0.1c-1.5,0.4-3,0.6-4.6,0.7c-0.9,0.1-1.7,0.4-2.3,1
			c-0.6,0.5-0.6,1,0.1,1.4c0.7,0.3,1.4,0.6,2.2,0.8c0.5,0.2,0.9-0.1,1.3-0.4c0.2-0.2,0.5-0.5,0.7-0.7c0.5-0.5,1-0.5,1.4,0.1
			c-0.2,0.2-0.5,0.3-0.7,0.5s-0.5,0.4-0.7,0.6c-0.6,0.7-1.2,0.8-2,0.5c-1.2-0.4-2.3-0.4-3.4,0.3c-0.3,0.2-0.7,0.4-1,0.6
			s-0.6,0.3-0.4,0.8c0.1,0.3,0,0.6-0.3,0.7c-0.2,0.1-0.6,0.2-0.8,0.1c-0.5-0.2-1-0.2-1.5-0.1c-0.9,0.2-1,0.7-0.9,1.5
			c0.2,0.6,0.6,0.8,1.1,0.5c0.3-0.1,0.6-0.3,0.9-0.3c1-0.2,1.9-0.4,2.7-1.1c0.2-0.2,0.6-0.2,0.8,0s0.3,0.4,0.5,0.6
			c0.3,0.5,0.5,0.9,0.8,1.4c0.1,0.2,0.3,0.2,0.4,0.4c0.1,0,0.1-0.1,0.2-0.1c-0.1-0.3-0.1-0.5-0.2-0.8c-0.1-0.3-0.1-0.5-0.2-0.8
			c0.1,0,0.1-0.1,0.2-0.1c0.3,0.3,0.5,0.6,0.8,0.9c0.2,0.3,0.4,0.4,0.7,0.2c0.4-0.2,0.8-0.2,1,0.1c0.2,0.3,0.2,0.8,0,1.1
			c-0.6,0.6-1.2,0.9-2,0.7c-0.7-0.2-1.5-0.5-2.2-0.7c-1.2-0.4-2.4-0.7-3.6-1c-0.6-0.1-1.1,0.1-1.5,0.5c-0.3,0.3-0.6,0.8-0.8,1.2
			c-0.1,0.2-0.2,0.3-0.3,0.5c-0.3,3.1,0.2,6.1,1.3,8.9c0.2,0.5,0.8,0.8,1.4,0.5c0.4-0.2,0.9-0.5,1.3-0.7c0.5-0.3,0.7-0.2,1.1,0.2
			c0.1,0.1,0.2,0.2,0.3,0.3c0.4,0.2,0.7,0.6,0.7,1.1s0.1,0.5,0.6,0.3c0.4-0.1,0.6,0,0.7,0.4c0.1,0.4,0.1,0.7,0.2,1.1
			c0.1,0.4,0.2,0.8,0.7,0.8c0,0.3,0,0.5,0,0.7c0.1,0.8,0.2,1.6,0.4,2.3c0.1,0.3,0.3,0.6,0.7,0.6c1,0,2-0.3,2.7-1.1
			c0.6-0.6,0.9-1.4,1.1-2.3c0.1-0.5,0.3-1,0.8-1.2c0.1,0,0.2-0.1,0.2-0.2c0.2-0.9,0.7-1.6,0.5-2.5c-0.2-1.1,0.3-1.9,1.1-2.5
			c0.1-0.1,0.2-0.2,0.3-0.3c0.6-0.6,0.8-1.4-0.2-1.9c-0.2-0.1-0.3-0.2-0.4-0.2c-1.2-0.7-1.8-1.7-2.1-3C44,49.5,44.1,49.2,44.1,49z
			 M61.5,63c0,0.2,0,0.2,0,0.3c0,0.2,0.1,0.4,0.1,0.6c0.2-0.1,0.3-0.1,0.5-0.2c0.2,0,0.5-0.1,0.7-0.1s0.4,0.1,0.5,0.2
			c0.2,0.1,0.4,0.1,0.6-0.1c1.6-1.7,2.9-3.6,3.9-5.8c0.4-0.8,0.3-1.5-0.1-2.3c-0.3-0.6-0.4-0.7-1-0.3c-0.9,0.7-2,1-3.1,1.3
			c-0.9,0.2-1.9,0.5-2.8,0.7c-1.5,0.5-2.6,2.4-2.2,3.9c0.2,0.6,0.4,1.2,0.6,1.9c0.2,0.8,0.5,0.9,1.1,0.5
			C60.8,63.5,61.1,63.3,61.5,63z M61.8,65.8c0-0.1,0-0.1,0-0.2c-1.2-0.6-2.4-0.6-3.5,0.1c-0.6,0.3-1.2,0.8-1.7,1.3
			c-0.3,0.3-0.7,0.4-1.1,0.2c-1.2-0.4-2.3-0.8-3.5-1.1c-1.6-0.5-3.2-0.8-4.9-0.3c-1.1,0.3-2.1,0.9-2.7,2c-0.3,0.6-0.1,1,0.6,1.2
			c2.3,0.6,4.7,0.8,7,0.6c2.9-0.3,5.5-1.1,8-2.6C60.5,66.6,61.2,66.2,61.8,65.8z M67.7,47.7c0.1,0.3,0.2,0.5,0.3,0.6
			c0.2,0.3,0.2,0.6-0.1,0.9c-0.2,0.3-0.4,0.6-0.4,1c-0.3,1.5,0.4,2.7,1.3,3.8c0.1,0.1,0.1,0.1,0.3,0.1c0.3-1.7,0.6-3.4,0.3-5.1
			c0-0.3-0.3-0.7-0.5-0.9C68.6,47.8,68.2,47.7,67.7,47.7z M31.9,42.9c0,0.1,0.1,0.1,0.1,0.2c0.2,0,0.3,0,0.5,0
			c0.2-0.1,0.5-0.2,0.7-0.4c0.9-0.8,1.7-1.8,2.8-2.3l0,0c0.3-0.3,0.3-0.5-0.1-0.7c-0.6-0.4-2.1-0.2-2.5,0.5
			C32.9,40.9,32.5,41.9,31.9,42.9z M45.6,59.4C45.6,59.4,45.7,59.4,45.6,59.4c0.1,0.2,0.1,0.3,0.1,0.5c0,0.1,0.1,0.2,0.2,0.4
			c0.1-0.1,0.3-0.2,0.3-0.3c0.2-0.3,0.3-0.6,0.4-1c0.3-0.9,0.7-1.8,1-2.7c0.1-0.2,0.1-0.3,0.1-0.5c0-0.5-0.3-0.7-0.7-0.5
			c-0.5,0.2-0.9,0.6-1,1.1C45.9,57.4,45.8,58.4,45.6,59.4z M35.2,38.7c0.4-0.2,0.9-0.4,1.3-0.6c0.6-0.3,0.7-0.8,0.8-1.4
			c0-0.3-0.1-0.6-0.4-0.6c-0.5-0.1-1,0-1.3,0.4c-0.4,0.5-0.7,0.9-1.1,1.4c-0.2,0.2-0.1,0.4,0.1,0.6C34.8,38.6,35,38.6,35.2,38.7z
			 M65.3,55.3c0.2-0.1,0.6-0.2,0.7-0.5c0.1-0.1-0.2-0.5-0.3-0.7c-0.1-0.1-0.3-0.2-0.4-0.3c-0.5-0.2-0.8-0.1-1.1,0.2
			c-0.3,0.3-0.2,0.6,0.1,0.8C64.6,55,64.9,55.1,65.3,55.3z M54.6,53.4c0.2-0.1,0.5-0.3,0.8-0.4c-0.1-0.3-0.3-0.5-0.4-0.7
			c-0.1-0.1-0.2-0.2-0.3-0.2c-0.5-0.2-0.9-0.2-1.2,0.3c-0.2,0.3-0.2,0.6,0.1,0.7C53.9,53.2,54.2,53.3,54.6,53.4z M64.3,53.2
			c0.5,0,0.8-0.2,0.6-0.5c-0.3-0.4-0.6-0.7-0.9-1c-0.3-0.2-0.6,0.1-0.6,0.4C63.3,52.8,63.7,53.2,64.3,53.2z"/>
	</g>
</g>
</svg>
