<?xml version="1.0" encoding="utf-8"?>
<!-- Generator: Adobe Illustrator 27.9.0, SVG Export Plug-In . SVG Version: 6.00 Build 0)  -->
<svg version="1.1" id="Layer_1" xmlns="http://www.w3.org/2000/svg" xmlns:xlink="http://www.w3.org/1999/xlink" x="0px" y="0px"
	 viewBox="0 0 100 100" style="enable-background:new 0 0 100 100;" xml:space="preserve">
<style type="text/css">
	.st0{fill:#FFFFFF;}
</style>
<g>
	<g>
		<path class="st0" d="M32,67.6c-0.2,0.3-0.4,0.7-0.6,0.9c-2.1,3.4-4.7,6.3-8.2,8.2c-2,1.1-4.2,1.8-6.5,2c-0.1,0-0.4-0.1-0.4-0.2
			c-0.1-0.2,0-0.4,0.1-0.5c1.7-2.9,3.1-5.9,3.9-9.2c0.4-1.5,0.6-3,0.7-4.6c0.2-3.1-0.5-6-1.5-8.9c-0.8-2.3-1.9-4.6-3.1-6.7
			c-0.1-0.2-0.2-0.4-0.1-0.5c0.1-0.1,0.4-0.2,0.5-0.2c1.8,0.1,3.5,0.6,5.1,1.4c3.9,1.8,6.9,4.7,9.2,8.3c0.3,0.5,0.6,1,0.9,1.5
			c0.2-0.1,0.3-0.2,0.5-0.3c4.5-3.5,9.3-6.5,14.7-8.7c2.5-1,5.1-1.8,7.8-2.1c3.6-0.5,7.1-0.1,10.5,1c4.6,1.5,8.5,4,12.1,7.1
			c2.3,2,4.4,4.2,6.2,6.6c0.4,0.5,0.4,0.5,0,1c-3.9,5-8.5,9.1-14.2,12c-2.7,1.4-5.5,2.3-8.5,2.7c-3.6,0.5-7.1,0.1-10.6-0.9
			c-5.1-1.5-9.7-4-14.1-7c-1.3-0.9-2.6-1.9-3.9-2.8C32.4,67.8,32.2,67.7,32,67.6z M65.8,56.7c-2.4,0-4.3,1.9-4.3,4.2
			c0,2.4,1.9,4.3,4.3,4.3c2.3,0,4.2-1.9,4.2-4.3C70.1,58.5,68.2,56.7,65.8,56.7z"/>
		<path class="st0" d="M83.6,35.6c0,0.3,0,0.6,0,1c0.1,0.5-0.2,0.8-0.5,1c-1.3,1.1-2.8,1.9-4.5,2.2c-2,0.4-4,0.1-5.8-0.7
			c-1.5-0.7-2.8-1.6-4-2.7c-0.6-0.5-0.6-0.5-1.2,0c-1.5,1.3-3.1,2.4-5.1,3c-2.8,0.8-5.4,0.5-8.1-0.6c-1.5-0.6-3-1.5-4.3-2.6
			c-0.3-0.3-0.5-0.2-0.8,0c-2.2,1.8-4.7,3.1-7.6,3.5c-3.4,0.5-6.4-0.5-9-2.6c-0.3-0.2-0.6-0.5-0.9-0.8c-0.4-0.4-0.6-0.4-1,0
			c-1.4,1.4-3,2.4-4.9,3.1c-3.7,1.3-6.9,0.5-9.8-2c-0.1-0.1-0.2-0.3-0.2-0.5c0-0.8,0-1.7,0-2.5c0-0.5,0.2-0.6,0.7-0.4
			c2.3,1.1,4.7,1.6,7.2,1.4c2.4-0.2,4.6-1.1,6.5-2.7c0.3-0.3,0.7-0.6,1-0.9c0.2-0.2,0.4-0.2,0.7,0c2,1.6,4.3,2.7,6.9,3.2
			c3.8,0.8,7.1-0.2,10.1-2.7c0.9-0.8,0.7-0.8,1.6,0c1.8,1.6,3.9,2.6,6.3,2.9c2.3,0.3,4.5-0.2,6.7-1.1c1.4-0.6,2.7-1.3,3.9-2.3
			c0.3-0.2,0.5-0.1,0.7,0.1c1.2,1.1,2.5,2,3.9,2.6c3.3,1.4,6.6,1.1,9.9-0.2c0.3-0.1,0.6-0.3,1-0.4c0.4-0.1,0.6,0,0.6,0.3
			C83.6,34.7,83.6,35.2,83.6,35.6L83.6,35.6z"/>
		<path class="st0" d="M83.6,25.2c0,0.2,0,0.5,0,0.7c0.1,0.6-0.2,1.1-0.7,1.4c-1.5,1.1-3.2,2-5.1,2.2c-1.8,0.2-3.6-0.2-5.2-0.9
			c-1.5-0.7-2.8-1.6-4-2.8c-0.4-0.4-0.5-0.4-0.9,0c-1.6,1.5-3.5,2.7-5.7,3.2c-2.8,0.6-5.6,0.2-8.2-1c-1.3-0.6-2.5-1.3-3.6-2.2
			c-0.3-0.3-0.6-0.3-0.9,0c-2,1.6-4.1,2.7-6.6,3.3c-3.6,0.8-6.9-0.1-9.8-2.4c-0.3-0.3-0.7-0.6-1-0.8c-0.4-0.4-0.6-0.4-1,0
			c-1.6,1.5-3.4,2.7-5.6,3.3c-2.9,0.8-5.5,0.3-8-1.4c-1.4-0.9-1.4-1-1.4-2.6c0-0.4,0-0.8,0-1.2c0-0.5,0.2-0.7,0.7-0.5
			c1.8,0.9,3.7,1.4,5.8,1.5c3.4,0.1,6.4-1.1,8.9-3.5c0.3-0.3,0.5-0.3,0.9-0.1c2.2,1.6,4.5,2.7,7.2,3.2c3.6,0.6,6.7-0.3,9.5-2.7
			c0.1-0.1,0.3-0.2,0.4-0.3c0.5-0.5,0.5-0.5,1.1,0c1.8,1.6,3.9,2.7,6.3,3.1c2.1,0.3,4.1,0,6-0.7c1.7-0.6,3.3-1.5,4.7-2.6
			c0.3-0.2,0.5-0.2,0.8,0c1.8,1.6,3.8,2.8,6.2,3.3c2.8,0.6,5.5,0.1,8-1c0.2-0.1,0.4-0.2,0.6-0.3c0.3-0.2,0.6,0,0.6,0.4
			C83.6,24.3,83.6,24.8,83.6,25.2z"/>
	</g>
</g>
</svg>
