<?xml version="1.0" encoding="utf-8"?>
<!-- Generator: Adobe Illustrator 27.9.0, SVG Export Plug-In . SVG Version: 6.00 Build 0)  -->
<svg version="1.1" id="Layer_1" xmlns="http://www.w3.org/2000/svg" xmlns:xlink="http://www.w3.org/1999/xlink" x="0px" y="0px"
	 viewBox="0 0 100 100" style="enable-background:new 0 0 100 100;" xml:space="preserve">
<style type="text/css">
	.st0{fill:#FFFFFF;}
</style>
<g>
	<g>
		<path class="st0" d="M24.6,40.4c-0.5-0.4-1-0.7-1.4-1.2c-1.8-1.9-2.4-4.2-1.5-6.6c0.8-2.5,2.7-4,5.2-4.4c0.4-0.1,0.8,0,1.2-0.1
			c0.1,0,0.3-0.2,0.3-0.3c0.3-3.7,3.1-6.9,7-7.8c4.8-1.1,9.8,2.2,10.7,7c0.3,1.8,0.1,3.5-0.6,5.2c0,0.1-0.1,0.2-0.1,0.3v0.1
			c0.1,0,0.3,0.1,0.4,0.1c4,1.2,6.5,3.9,7.2,8c1,5.7-3,10.6-8.1,11.4c-0.8,0.1-1.6,0.1-2.4,0.2c-1.5,0-3,0-4.4,0
			c-2.9,0-5.7,0-8.6-0.1c-3.3-0.1-6-2.5-6.5-5.7c-0.4-2.1,0.1-4.1,1.5-5.8c0.1-0.1,0.1-0.2,0.2-0.3C24.6,40.5,24.6,40.4,24.6,40.4z"
			/>
		<path class="st0" d="M50,72.8c-10,0-20,0-30,0c-0.8,0-0.8,0-0.8-0.8c0-1,0-1.9,0-2.9c0-0.5,0.1-0.6,0.6-0.6c0.1,0,0.2,0,0.2,0
			c20,0,40,0,60,0c0.7,0,0.7,0,0.7,0.7c0,1,0,1.9,0,2.9c0,0.6,0,0.6-0.6,0.6c-3.8,0-7.7,0-11.5,0C62.5,72.8,56.2,72.8,50,72.8z"/>
		<path class="st0" d="M50.1,76c10,0,20.1,0,30.1,0c0.7,0,0.7,0,0.7,0.7c0,1,0,2,0,3c0,0.3-0.1,0.5-0.5,0.5c-0.1,0-0.2,0-0.2,0
			c-20,0-40.1,0-60.1,0c-0.8,0-0.8,0-0.8-0.8c0-0.9,0-1.9,0-2.8c0-0.6,0-0.6,0.6-0.6C29.9,76,40,76,50.1,76z"/>
		<path class="st0" d="M63.7,42.7c1.8,0.1,3.4,0.7,4.8,1.7c0.4,0.3,0.6,0.3,1,0c1.6-1.1,3.4-1.8,5.4-1.6c1.7,0.1,3.1,0.9,4.3,2.1
			c0.2,0.2,0.2,0.7,0,0.9c-0.3,0.2-0.5,0.2-0.8,0c-1-0.6-2-0.6-3.1-0.6c-2.3,0.2-4.2,1.1-5.9,2.7c-0.3,0.3-0.7,0.3-1.1-0.1
			c-1-0.9-2-1.6-3.3-2c-1.5-0.5-3-0.8-4.5-0.4c-0.3,0.1-0.7,0.2-1,0.4s-0.6,0.3-0.9,0c-0.2-0.3-0.2-0.7,0.1-1
			c0.8-0.8,1.8-1.4,2.9-1.7C62.4,42.9,63,42.8,63.7,42.7z"/>
		<path class="st0" d="M40.1,59.7c0,1.4,0,2.9,0,4.3c0,0.5-0.1,0.5-0.6,0.5c-1,0-2,0-3,0c-0.4,0-0.5-0.1-0.5-0.5c0-2.9,0-5.8,0-8.7
			c0-0.4,0.1-0.5,0.5-0.5c1,0,2,0,3.1,0c0.4,0,0.5,0.2,0.5,0.6C40.1,56.9,40.1,58.3,40.1,59.7z"/>
		<path class="st0" d="M56.7,27.4c1.3,0.1,2.5,0.4,3.6,1.1c0.3,0.2,0.5,0.2,0.7,0c1-0.8,2.1-1.4,3.4-1.6c1.8-0.2,3.3,0.3,4.7,1.5
			c0.3,0.2,0.3,0.6,0.1,0.9c-0.2,0.3-0.5,0.2-0.7,0.1C67.8,29,67,29,66.2,29.1c-1.9,0.2-3.4,1-4.7,2.4C61,32,60.8,32,60.3,31.6
			c-1.4-1.1-3-1.7-4.7-1.8c-0.9,0-1.8,0.1-2.5,0.6c-0.1,0.1-0.5,0.1-0.5,0c-0.1-0.2-0.2-0.5-0.2-0.7c0-0.1,0.1-0.2,0.2-0.3
			C53.7,28.1,55.1,27.4,56.7,27.4z"/>
		<path class="st0" d="M74.2,23.8c-1,0-1.9,0.2-2.7,0.6c-0.6,0.3-0.8,0.2-1.2-0.3c-0.9-1.4-2-2.3-3.6-2.6c-0.4-0.1-0.7-0.1-1.1,0
			c-0.3,0-0.6,0.1-0.7-0.3c-0.1-0.3,0-0.7,0.3-0.8c1.6-0.8,3.2-0.8,4.7,0.2c0.5,0.3,0.9,0.7,1.3,1.2c0.2,0.3,0.4,0.3,0.8,0.2
			c1.5-0.5,3.1-0.5,4.4,0.6c0.6,0.4,1,1,1.4,1.6c0.2,0.3,0.1,0.7-0.1,0.9c-0.3,0.2-0.5,0.1-0.8-0.2c-0.5-0.5-1.2-0.7-1.9-0.9
			C74.7,23.9,74.4,23.8,74.2,23.8z"/>
	</g>
</g>
</svg>
