<?xml version="1.0" encoding="utf-8"?>
<!-- Generator: Adobe Illustrator 27.9.0, SVG Export Plug-In . SVG Version: 6.00 Build 0)  -->
<svg version="1.1" id="Layer_1" xmlns="http://www.w3.org/2000/svg" xmlns:xlink="http://www.w3.org/1999/xlink" x="0px" y="0px"
	 viewBox="0 0 100 100" style="enable-background:new 0 0 100 100;" xml:space="preserve">
<style type="text/css">
	.st0{fill:#FFFFFF;}
</style>
<g>
	<g>
		<path class="st0" d="M41.8,49.9c-1.2-0.2-2.4-0.5-3.5-1c-2.6-1.2-4.2-3.2-5.4-5.7c-0.8-1.8-1.1-3.6-1.6-5.5
			c-0.4-1.7-0.9-3.4-1.5-5.1c-0.6-1.6-1.5-3-3.1-3.8c0.9,0,1.7-0.1,2.5-0.1c4.6,0,8.5,1.7,11.9,4.6c1.1,0.9,2.1,2,3.2,3
			c1.6,1.4,3.3,2.5,5.4,3c2.6,0.6,5,0,7.1-1.6c1.2-0.9,2.3-2,3.5-3c1-0.7,1.9-1.4,3-2c1.8-0.9,3-0.6,4.3,0.9c0.5,0.5,0.9,1,1.4,1.5
			c0.1-0.1,0.1-0.2,0.1-0.2c0.4-1.8,1.4-3.2,2.6-4.5c1.1-1.2,2.3-2.4,3.4-3.7c0.1,0.1,0.2,0.1,0.4,0.3c-0.3,0.4-0.5,0.7-0.8,1.1
			c-0.8,0.9-1.7,1.8-2.6,2.7c-1.2,1.3-2.2,2.7-2.6,4.4c-0.1,0.3,0,0.5,0.3,0.7c0.5,0.4,1,0.7,1.5,1.1c-0.6,0-1.1,0.1-1.6,0.1
			c-0.3,0-0.4,0.2-0.3,0.5c0.1,1.5,0.4,2.9,0.9,4.3c-0.2,0-0.3,0.1-0.6,0.1c-0.5-1.5-0.9-3.1-0.9-4.7c-2.7,0-5.1,2-5.8,4.6
			c-0.4,1.4-0.5,2.9-0.4,4.3c0.1,3.1-0.5,6-2.5,8.6c-1.5,2-3.6,3.3-5.9,4.2c-2,0.8-4.1,1.4-6.2,1.7c-0.3,0-0.5,0.2-0.5,0.5
			c0,1.7,0,3.4,0,5.1c0,0.4,0.1,0.5,0.5,0.5c2.7,0,5.3,0.1,8,0.2c1.8,0.1,3.5-0.3,5.2-0.4c0.9-0.1,1.8-0.2,2.7-0.3
			c0-0.4,0-0.7,0-1.1c0-0.6,0-1.2,0-1.8c0-0.7,0.3-1,1-1c3.3,0,6.6,0,9.9,0c0.7,0,1,0.3,1,1c0,3.2,0,6.5,0,9.8c0,0.7-0.3,1-1,1
			c-3.3,0-6.6,0-9.8,0c-0.7,0-1-0.3-1-1c0-0.8,0-1.6,0-2.5c0-0.4-0.1-0.5-0.5-0.5c-1.2-0.1-2.5-0.3-3.7-0.4
			c-1.4-0.2-2.8-0.3-4.3-0.2c-3.8,0.1-7.6,0.2-11.4,0.3c-2.4,0.1-4.9,0.1-7.3,0.2c-3.8,0.1-7.6,0.2-11.4,0.2c-0.4,0-0.9,0-1.4,0
			c0-1.2,0-2.5,0-3.8c6.1,0.1,12.2,0.3,18.3,0.4c0-0.2,0-0.3,0-0.4c0-1.7,0-3.3,0-5c0-0.2-0.1-0.4-0.3-0.4c-3.5-0.3-6.8-1.3-9.8-3.3
			c-1.7-1.1-3.5-2.1-5-3c0.8,0,1.8,0.2,2.9,0.1c1.9,0,3.7-0.5,5.3-1.6c1.1-0.8,2.3-1.5,3.5-2.2c0.7-0.4,1.6-0.6,2.4-0.8
			C41.6,50,41.7,50,41.8,49.9z M46.3,61c-0.7,0-1.3,0-2,0c-0.1,0-0.2,0.2-0.2,0.3c0,1.7,0,3.3,0,5c0,0.3,0.1,0.4,0.4,0.4
			c0.5,0,0.9,0,1.4,0.1c0.4,0,0.5-0.1,0.5-0.5c0-1.6,0-3.2,0-4.8C46.3,61.2,46.3,61.1,46.3,61z"/>
		<path class="st0" d="M70.2,61.1c-1.8,0-3.6,0-5.4,0c-1,0-1.6-0.6-1.6-1.5s0.7-1.5,1.6-1.5c3.6,0,7.2,0,10.7,0
			c0.8,0,1.4,0.5,1.6,1.3c0.1,0.7-0.2,1.4-0.9,1.7c-0.2,0.1-0.5,0.1-0.7,0.1C73.7,61.1,72,61.1,70.2,61.1z"/>
		<path class="st0" d="M70.1,78.2c-1.8,0-3.5,0-5.3,0c-0.9,0-1.7-0.7-1.7-1.5c0-0.9,0.7-1.5,1.7-1.5c3.6,0,7.1,0,10.7,0
			c0.9,0,1.5,0.5,1.6,1.3c0.1,0.7-0.4,1.5-1.1,1.7c-0.2,0.1-0.4,0.1-0.6,0.1C73.7,78.2,71.9,78.2,70.1,78.2z"/>
		<path class="st0" d="M23.2,68.1c0,0.5,0,1.1,0,1.6c-0.1,0.8-0.6,1.2-1.4,1.2c-1.5,0-1.9-0.4-1.9-1.9c0-0.7,0-1.5,0-2.2
			c0-1,0.5-1.5,1.5-1.5c0.2,0,0.3,0,0.5,0c0.7,0,1.2,0.5,1.3,1.2c0,0.1,0,0.2,0,0.3C23.2,67.2,23.2,67.6,23.2,68.1L23.2,68.1z"/>
		<path class="st0" d="M80.2,21.8c0,1.4-0.2,2.8-1.5,3.7c-0.7,0.5-1.6,0.6-2.5,0.6c-0.1,0-0.3-0.2-0.3-0.2
			C75.7,23.3,77.7,21.3,80.2,21.8z"/>
		<path class="st0" d="M69.7,31.3c-2.4-1.3-2.8-3.4-1.2-5.6C71,27,71.4,29.3,69.7,31.3z"/>
		<path class="st0" d="M71.7,22.2c2.1,1.1,2.7,2.8,1.8,4.7c-0.5,1.1-0.4,1-1.4,0.3C70.5,25.8,70.6,23.8,71.7,22.2z"/>
		<path class="st0" d="M74.9,29.6c0.8-0.9,1.6-1.6,2.9-1.6c0.8,0.1,1.5,0.5,2.2,1c0.1,0.1,0.1,0.3,0,0.3
			C78.5,31.1,76.7,31.3,74.9,29.6z"/>
		<path class="st0" d="M71.9,32.8c1.8-1.6,3.8-1.4,5.2,0.6C75.5,34.9,73.3,34.9,71.9,32.8z"/>
	</g>
</g>
</svg>
