<?xml version="1.0" encoding="utf-8"?>
<!-- Generator: Adobe Illustrator 27.9.0, SVG Export Plug-In . SVG Version: 6.00 Build 0)  -->
<svg version="1.1" id="Layer_1" xmlns="http://www.w3.org/2000/svg" xmlns:xlink="http://www.w3.org/1999/xlink" x="0px" y="0px"
	 viewBox="0 0 100 100" style="enable-background:new 0 0 100 100;" xml:space="preserve">
<style type="text/css">
	.st0{fill:#FFFFFF;}
</style>
<g>
	<path class="st0" d="M59.2,80.5c-3.1,0-6.1-0.8-8.7-2.5c-0.3-0.2-0.5-0.2-0.8,0c-2.5,1.6-5.2,2.4-8.1,2.6
		c-8.2,0.4-15.3-5.3-16.9-13.3c-0.5-2.4-0.4-4.9,0.3-7.3c0.1-0.3,0.1-0.4-0.2-0.6c-3.3-2.8-5.4-6.3-5.9-10.6
		c-1.1-8.8,4.7-16.3,12.6-18.1c0.9-0.2,1.8-0.3,2.6-0.4c0.3,0,0.4-0.2,0.6-0.4c1.8-4.5,4.9-7.7,9.4-9.4c8.5-3.3,18,0.9,21.2,9.4
		c0.1,0.3,0.2,0.4,0.5,0.4c3.4,0.2,6.5,1.4,9.2,3.5c3.6,2.9,5.7,6.7,6.1,11.3c0.5,5.7-1.5,10.5-5.9,14.2c-0.2,0.2-0.3,0.3-0.2,0.6
		c1.9,7.6-1.6,15.2-8.5,18.7C64.3,79.9,61.8,80.5,59.2,80.5z M62,30.5c-1.8-4.3-6.6-8.4-13.1-7.8c-5.6,0.5-9.6,4.5-10.8,7.8
		c5.4,1.2,9.4,4.2,11.9,9.2C52.6,34.7,56.5,31.7,62,30.5z M33.7,33.7c-4.1,0.3-9.3,3.4-11.1,9.2c-1.7,5.5,0.6,10.9,3.8,13.5
		c2.8-4.8,7-7.7,12.5-8.5C34.9,43.9,33.2,39.3,33.7,33.7z M28.1,61.5c-1,3.7,0.1,9.7,5.2,13.4c4.8,3.4,10.7,2.8,14.1,0.6
		c-3.7-4.1-5.2-8.9-4.3-14.4C38.1,63.6,33.1,63.8,28.1,61.5z M73.7,56.3c3.5-2.9,5.6-8.6,3.5-14.1c-1.1-2.9-3-5.2-5.7-6.8
		c-1.6-1-3.4-1.6-5.3-1.8c0.6,5.5-1.1,10.2-5.1,14.1C66.8,48.6,70.9,51.5,73.7,56.3z M57,61.1c0.9,5.5-0.5,10.3-4.2,14.4
		c3.8,2.4,10,2.7,14.7-1.2c2.4-2,4-4.6,4.6-7.7c0.3-1.6,0.3-3.3-0.1-5C66.9,63.8,61.9,63.6,57,61.1z M53.2,52.5
		c3.7,7.5,12.6,8.9,17.7,5.8C67.6,51.4,59.3,49.1,53.2,52.5z M50,54.8c-5.3,5-5.1,13.8,0.1,18.6C55.1,68.7,55.4,60.1,50,54.8z
		 M29.2,58.3c6.4,3.5,14.7,0.6,17.6-5.7C40.8,49.3,32.5,51.6,29.2,58.3z M48.1,48.7c1.3-6.9-4-14.1-10.9-14.9
		C35.8,39.9,40.3,47.6,48.1,48.7z M52,48.7c7.8-1.1,12.2-8.8,10.9-14.9C55.7,34.7,50.7,42,52,48.7z"/>
</g>
</svg>
