<?xml version="1.0" encoding="utf-8"?>
<!-- Generator: Adobe Illustrator 27.9.0, SVG Export Plug-In . SVG Version: 6.00 Build 0)  -->
<svg version="1.1" id="Layer_1" xmlns="http://www.w3.org/2000/svg" xmlns:xlink="http://www.w3.org/1999/xlink" x="0px" y="0px"
	 viewBox="0 0 100 100" style="enable-background:new 0 0 100 100;" xml:space="preserve">
<style type="text/css">
	.st0{fill:#FFFFFF;}
</style>
<g>
	<g>
		<path class="st0" d="M50.1,50.3c10.8,0,21.5,0,32.3,0c0.1,0,0.2,0,0.4,0c1,0,1.3,0.3,1.1,1.3c-0.9,4.7-2.7,9-5.7,12.8
			c-4.2,5.5-9.6,9.3-16.1,11.5c-0.5,0.2-0.7,0.3-0.6,0.8c0.1,0.4,0,0.8,0,1.2c0,0.7-0.3,0.9-0.9,1c-1.2,0-2.5,0-3.8,0
			c-5.5,0-11.1,0-16.6,0c-0.9,0-1.2-0.2-1.2-1.1c0-0.4,0-0.7,0-1.1c0-0.3-0.1-0.4-0.4-0.5c-3.1-1-6-2.3-8.7-4.2
			c-7-4.7-11.7-11-13.6-19.3c-0.1-0.5-0.2-0.9-0.3-1.4c-0.1-0.6,0.2-1,0.8-1c0.2,0,0.4,0,0.6,0C28.4,50.3,39.3,50.3,50.1,50.3z"/>
		<path class="st0" d="M63.9,47.6c0.2-0.8,0.4-1.6,0.4-2.4c0.1-2.1-0.7-3.8-2-5.4c-0.5-0.7-1.1-1.3-1.6-2c-2.1-3-2.5-6.2-1.7-9.7
			c0.5-2.1,1.3-4,2.5-5.8c0.6-1,1.8-1.3,2.9-0.9s1.4,1.5,0.8,2.6c-1.5,2.4-2.5,5-2.3,7.9c0.1,2,0.9,3.6,2.2,5.1
			c1.5,1.6,2.6,3.5,3.1,5.6c0.4,1.5,0.3,3.1,0,4.6c-0.1,0.2-0.1,0.4-0.4,0.4C66.5,47.6,65.2,47.6,63.9,47.6L63.9,47.6z"/>
		<path class="st0" d="M50.6,47.6c0.2-0.6,0.3-1.1,0.4-1.7c0.3-2-0.3-3.9-1.4-5.5c-0.5-0.7-1.1-1.3-1.6-1.9c-2-2.5-2.8-5.4-2.5-8.6
			c0.3-2.8,1.3-5.3,2.8-7.6c0.6-1,1.9-1.3,3-0.8c1,0.5,1.3,1.5,0.7,2.5c-1.2,1.8-2,3.8-2.2,6c-0.3,2.6,0.3,5,2.1,7
			c1.6,1.8,2.9,3.8,3.3,6.2c0.2,1.4,0.2,2.7-0.2,4.1c0,0.1-0.2,0.4-0.3,0.4C53.3,47.6,52,47.6,50.6,47.6z"/>
		<path class="st0" d="M37.5,47.6c0.2-0.9,0.4-1.7,0.4-2.6c0.1-2.1-0.8-3.9-2.2-5.4c-0.9-1.1-1.8-2.1-2.4-3.4
			c-1.4-2.9-1.4-5.9-0.6-8.9c0.5-1.8,1.3-3.5,2.3-5.1c0.6-1,1.8-1.3,2.9-0.8c1.1,0.5,1.4,1.5,0.7,2.5c-1.3,2.1-2.2,4.4-2.3,6.9
			c-0.1,2.3,0.6,4.3,2.2,6.1c1.3,1.4,2.4,3,3,4.9c0.6,1.8,0.6,3.5,0.2,5.3c-0.1,0.3-0.2,0.5-0.6,0.5c-1.1,0-2.3,0-3.5,0
			C37.7,47.6,37.6,47.6,37.5,47.6z"/>
	</g>
</g>
</svg>
