<?xml version="1.0" encoding="utf-8"?>
<!-- Generator: Adobe Illustrator 27.9.0, SVG Export Plug-In . SVG Version: 6.00 Build 0)  -->
<svg version="1.1" id="Layer_1" xmlns="http://www.w3.org/2000/svg" xmlns:xlink="http://www.w3.org/1999/xlink" x="0px" y="0px"
	 viewBox="0 0 100 100" style="enable-background:new 0 0 100 100;" xml:space="preserve">
<style type="text/css">
	.st0{fill:#FFFFFF;}
</style>
<g>
	<path class="st0" d="M67.4,67.1c-7.5,2.3-15.1,4.5-22.7,6.8c0-0.2,0-0.3,0-0.5c0-11.6,0-23.3,0-34.9c0-0.3,0.1-0.5,0.3-0.6
		c7.3-4.2,14.7-8.5,22-12.7c0.1-0.1,0.2-0.1,0.4-0.2C67.4,39,67.4,53,67.4,67.1z"/>
	<path class="st0" d="M42.2,73.9c-2-0.6-4-1.2-5.9-1.8c-5.4-1.6-10.8-3.3-16.2-4.9c-0.3-0.1-0.4-0.2-0.4-0.5c0-13.8,0-27.6,0-41.3
		c0-0.1,0-0.2,0-0.4c0.1,0.1,0.2,0.1,0.3,0.1c7.3,4.2,14.6,8.4,21.9,12.6c0.2,0.1,0.3,0.3,0.3,0.6c0,11.7,0,23.4,0,35.2
		C42.2,73.6,42.2,73.7,42.2,73.9z"/>
	<path class="st0" d="M69.9,24.8c0.8,0.6,1.6,1.2,2.3,1.8c0.1,0.1,0.1,0.2,0.1,0.3s0,0.2,0,0.4c0,14,0,28.1,0,42.1
		c0,0.5-0.1,0.6-0.6,0.8c-6.5,2-12.9,4.1-19.4,6.1c-2.4,0.8-4.8,1.5-7.2,2.3c-0.2,0.1-0.5,0.1-0.7,0.1c-2.1,0.2-4.1-0.5-6.1-1
		c-7.7-2.1-15.4-4.3-23.1-6.4c-0.4-0.1-0.5-0.2-0.5-0.6c0-14.5,0-28.9,0-43.4c0-0.3,0.1-0.6,0.4-0.8c0.6-0.4,1.1-0.9,1.7-1.3
		c0.1-0.1,0.2-0.1,0.3-0.2c0,0.2,0,0.4,0,0.6c0,14.5,0,28.9,0,43.4c0,0.5,0.1,0.6,0.6,0.7c8.1,2.2,16.1,4.5,24.2,6.7
		c1,0.3,2.2,0.3,3.2-0.1c7.6-2.4,15.2-4.9,22.9-7.4c0.5-0.2,1-0.3,1.5-0.5c0.2-0.1,0.3-0.2,0.3-0.4c0-0.1,0-0.2,0-0.4
		c0-14,0-28.1,0-42.1C69.9,25.3,69.9,25.1,69.9,24.8z"/>
	<path class="st0" d="M82.5,75.6c-0.2-0.8-0.4-1.5-0.6-2.2c-0.6-2.2-1.3-4.4-1.9-6.6c-0.1-0.2-0.1-0.5-0.1-0.7c0-12.3,0-24.5,0-36.8
		c0-0.1,0-0.2,0-0.4c1.8,0,3.5,0,5.3,0c0,0.1,0,0.3,0,0.4c0,12.3,0,24.5,0,36.8c0,0.5-0.2,1-0.3,1.5c-0.7,2.6-1.5,5.1-2.2,7.7
		C82.8,75.3,82.7,75.4,82.5,75.6z"/>
	<path class="st0" d="M85.2,26.7c-1.8,0-3.5,0-5.3,0c0-1.1-0.1-2.2,0-3.3c0.2-1.4,1.5-2.3,2.8-2.2c1.4,0.1,2.4,1.2,2.4,2.6
		C85.2,24.8,85.2,25.7,85.2,26.7z"/>
</g>
</svg>
