<?xml version="1.0" encoding="utf-8"?>
<!-- Generator: Adobe Illustrator 27.9.0, SVG Export Plug-In . SVG Version: 6.00 Build 0)  -->
<svg version="1.1" id="Layer_1" xmlns="http://www.w3.org/2000/svg" xmlns:xlink="http://www.w3.org/1999/xlink" x="0px" y="0px"
	 viewBox="0 0 100 100" style="enable-background:new 0 0 100 100;" xml:space="preserve">
<style type="text/css">
	.st0{fill:#FFFFFF;}
</style>
<g>
	<g>
		<path class="st0" d="M58,28.9c2.3-2.3,4.6-4.6,6.9-6.9c-0.1,0-0.3,0-0.4,0c-1.8,0-3.6,0-5.4,0c-0.4,0-0.5-0.1-0.5-0.5
			c0-1.5,0-3.1,0-4.6c0-0.3,0.1-0.5,0.5-0.5c5,0,10.1,0,15.1,0c0.5,0,0.5,0.2,0.5,0.6c0,3.2,0,6.4,0,9.6c0,1.8,0,3.6,0,5.3
			c0,0.5,0,0.5-0.5,0.5c-1.5,0-3,0-4.5,0c-0.4,0-0.5-0.1-0.5-0.5c0-1.6,0-3.3,0-4.9c0-0.2,0-0.3,0-0.6c-0.2,0.2-0.3,0.3-0.4,0.3
			c-2.1,2.1-4.1,4.1-6.2,6.2c-0.2,0.2-0.2,0.4-0.1,0.7c2.6,3.9,3.8,8.2,3.5,12.9c-0.6,8.8-6.9,16.3-15.5,18.4
			c-0.4,0.1-0.9,0.2-1.3,0.3c-0.2,0-0.3,0.1-0.3,0.4c0,1.8,0,3.6,0,5.5c0,0.3,0.1,0.4,0.4,0.4c1.8,0,3.7,0,5.5,0
			c0.4,0,0.5,0.1,0.5,0.5c0,1.6,0,3.3,0,4.9c0,0.4-0.1,0.5-0.5,0.5c-1.8,0-3.6,0-5.4,0c-0.4,0-0.5,0.1-0.5,0.5c0,1.7,0,3.4,0,5.1
			c0,0.4-0.1,0.5-0.5,0.5c-1.7,0-3.3,0-5,0c-0.3,0-0.5-0.1-0.5-0.5c0-1.7,0-3.4,0-5c0-0.6,0-0.6-0.6-0.6c-1.8,0-3.5,0-5.2,0
			c-0.4,0-0.5-0.1-0.5-0.5c0-1.6,0-3.3,0-4.9c0-0.4,0.1-0.5,0.5-0.5c1.8,0,3.7,0,5.5,0c0.3,0,0.5-0.1,0.5-0.5c0-1.7,0-3.4,0-5.2
			c0-0.3-0.1-0.5-0.4-0.5c-8.1-1.5-13.7-6.1-16.4-13.8c-3.3-9.5,1.1-19.9,9.9-24.5c3.3-1.7,6.8-2.5,10.4-2.3
			C50.8,24.9,54.5,26.3,58,28.9C57.8,28.8,58,28.9,58,28.9z M60.6,45.1c0-8.3-6.8-15.1-14.9-15.1c-8.1-0.1-15.2,6.4-15.3,14.9
			s6.6,15.3,15,15.3S60.6,53.5,60.6,45.1z"/>
		<path class="st0" d="M45.6,51.6c-3,0-5.9,0-8.9,0c-0.4,0-0.5-0.1-0.5-0.5c0-1.3,0-2.6,0-3.8c0-0.3,0.1-0.4,0.4-0.4
			c5.9,0,11.9,0,17.8,0c0.3,0,0.4,0.1,0.4,0.5c0,1.3,0,2.6,0,3.8c0,0.4-0.1,0.5-0.5,0.5C51.5,51.6,48.5,51.6,45.6,51.6z"/>
		<path class="st0" d="M45.5,39c2.9,0,5.9,0,8.8,0c0.4,0,0.5,0.1,0.5,0.5c0,1.2,0,2.5,0,3.8c0,0.3-0.1,0.5-0.4,0.5
			c-5.9,0-11.9,0-17.8,0c-0.3,0-0.5-0.1-0.5-0.5c0-1.3,0-2.6,0-3.8c0-0.4,0.1-0.5,0.5-0.5C39.6,39,42.6,39,45.5,39z"/>
	</g>
</g>
</svg>
