<?xml version="1.0" encoding="utf-8"?>
<!-- Generator: Adobe Illustrator 27.9.0, SVG Export Plug-In . SVG Version: 6.00 Build 0)  -->
<svg version="1.1" id="Layer_1" xmlns="http://www.w3.org/2000/svg" xmlns:xlink="http://www.w3.org/1999/xlink" x="0px" y="0px"
	 viewBox="0 0 100 100" style="enable-background:new 0 0 100 100;" xml:space="preserve">
<style type="text/css">
	.st0{fill:#FFFFFF;}
</style>
<g>
	<g>
		<path class="st0" d="M59.3,73c-3,3-6,6-9,9c-3-3-6-6-9-9c0,0,0.1,0,0.2,0c1,0,2,0,3,0c0.4,0,0.5-0.1,0.5-0.5
			c-0.2-2.1-0.4-4.1-0.6-6.2c-0.1-1-0.1-1-1.1-1c-2.7,0-5.4,0-8.1,0c-0.7,0-0.8-0.1-0.9-0.8c-0.5-2.7-0.9-5.5-1.4-8.2
			c-0.6-3.6-1.2-7.3-1.8-10.9c-0.7-4.1-1.4-8.2-2-12.4c-0.7-4.4-1.5-8.9-2.2-13.3c-0.1-0.4-0.1-0.8-0.2-1.1
			c-0.1-0.5,0.1-0.6,0.5-0.6c0.1,0,0.3,0,0.4,0c14.9,0,29.8,0,44.8,0c0.2,0,0.3,0,0.5,0c0.4,0,0.5,0.2,0.5,0.6
			c-0.3,2.3-0.7,4.6-1.1,6.9c-0.5,3.2-1,6.4-1.5,9.6c-0.5,3.1-1,6.3-1.5,9.4c-0.5,3.2-1,6.3-1.5,9.5c-0.5,3.1-1,6.2-1.5,9.3
			c-0.1,0.5-0.1,0.9-0.2,1.4s-0.2,0.6-0.7,0.6c-3,0-5.9,0-8.8,0c-0.4,0-0.6,0.1-0.6,0.5c-0.1,1.5-0.2,3-0.4,4.5
			c-0.1,0.7-0.1,1.5-0.2,2.2c0,0.3,0.1,0.4,0.4,0.4c1,0,2.1,0,3.1,0C59.1,72.9,59.2,73,59.3,73z M70.2,27.8c0-0.1,0.1-0.2,0.1-0.2
			c0.4-2.3,0.8-4.7,1.2-7c0.1-0.7,0.1-0.7-0.6-0.7c-11.7,0-23.4,0-35.2,0c-2.2,0-4.3,0-6.5,0c-0.5,0-0.5,0.1-0.4,0.5
			c0.5,2.5,1,5,1.5,7.5c0.3,1.4,0.3,1.4,1.8,1.3c2-0.2,4-0.8,5.9-1.5c1.2-0.4,2.3-0.8,3.6-0.8c1.5,0,2.8,0.3,4.2,0.8
			c1.8,0.7,3.6,1.4,5.4,2c2.9,0.9,5.9,1.1,8.8,0.4c2-0.4,3.9-1.1,5.9-1.9c1.4-0.5,2.7-0.8,4.2-0.3C70.1,27.8,70.2,27.8,70.2,27.8z
			 M50.3,35.4c-0.1,0.1-0.2,0.2-0.2,0.3c-2,3.1-4,6.1-6,9.2c-1.2,1.7-1.7,3.6-1.5,5.6c0.2,2.6,1.5,4.5,3.7,5.8
			c1.6,0.9,3.4,1,5.2,0.8c3.9-0.4,6.5-3.5,6.5-7.2c0-1.7-0.5-3.3-1.4-4.8c-2-3.2-4.1-6.3-6.1-9.5C50.4,35.6,50.4,35.5,50.3,35.4z"/>
	</g>
</g>
</svg>
