<?xml version="1.0" encoding="utf-8"?>
<!-- Generator: Adobe Illustrator 27.9.0, SVG Export Plug-In . SVG Version: 6.00 Build 0)  -->
<svg version="1.1" id="Layer_1" xmlns="http://www.w3.org/2000/svg" xmlns:xlink="http://www.w3.org/1999/xlink" x="0px" y="0px"
	 viewBox="0 0 100 100" style="enable-background:new 0 0 100 100;" xml:space="preserve">
<style type="text/css">
	.st0{fill:#FFFFFF;}
</style>
<g>
	<g>
		<path class="st0" d="M49.9,31.7c10.2,0,18.4,8.2,18.4,18.4c0,10-8,18.5-18.4,18.5c-10.3,0-18.4-8.3-18.4-18.2
			C31.4,40,39.6,31.7,49.9,31.7z M52.8,40.8c0,0.2-0.1,0.4-0.1,0.6c0,0.8,0,1.6,0,2.4c0,0.4,0.1,0.7,0.5,0.9c2.3,1.4,3.4,4,2.8,6.6
			c-0.7,3.3-3.6,5.3-7,4.9c-2.8-0.3-5.5-2.8-5.4-6.4c0.1-2.3,1.1-4.1,3.1-5.2c0.2-0.2,0.3-0.3,0.3-0.6c0-0.9,0-1.8,0-2.7
			c0-0.1,0-0.3-0.1-0.5c-1.8,0.6-3.2,1.5-4.4,2.9c-1.6,1.9-2.4,4.1-2.3,6.6c0.2,5.3,4.5,9.3,9.7,9.3c5.2-0.1,9.5-4.2,9.6-9.4
			c0.1-2.5-0.8-4.7-2.4-6.6C55.9,42.3,54.5,41.4,52.8,40.8z M51.3,42.1c0-1,0-2,0-3c0-0.9-0.6-1.5-1.4-1.5c-0.8,0-1.4,0.6-1.4,1.5
			c0,2,0,4,0,6c0,0.8,0.6,1.5,1.4,1.5c0.7,0,1.4-0.7,1.4-1.5C51.3,44.1,51.3,43.1,51.3,42.1z"/>
		<path class="st0" d="M66.7,23.5c-0.1,0.2-0.1,0.5-0.2,0.7c-1.3,2.3-2.6,4.6-3.9,6.9c-0.4,0.7-1.3,0.9-2,0.5c-0.7-0.4-1-1.3-0.6-2
			c1.3-2.3,2.6-4.6,4-6.9c0.3-0.6,1.1-0.8,1.8-0.6C66.2,22.2,66.6,22.8,66.7,23.5z"/>
		<path class="st0" d="M31.7,38.4c0,1.4-1.2,2.1-2.2,1.6c-1.7-0.9-3.4-1.9-5-2.9c-0.6-0.3-1.2-0.7-1.8-1c-0.7-0.4-1-1.3-0.6-2
			c0.4-0.7,1.3-1,2.1-0.5c2.3,1.3,4.5,2.6,6.8,3.9C31.5,37.7,31.7,38.1,31.7,38.4z"/>
		<path class="st0" d="M38.4,31.8c-0.4,0-0.9-0.2-1.2-0.8c-1.3-2.2-2.5-4.4-3.8-6.6c-0.2-0.3-0.3-0.7-0.3-1c0-0.7,0.4-1.3,1.1-1.4
			c0.7-0.2,1.3,0.1,1.7,0.7c1.3,2.3,2.6,4.6,3.9,6.9C40.5,30.6,39.8,31.8,38.4,31.8z"/>
		<path class="st0" d="M40.2,69.8c-0.1,0.2-0.1,0.5-0.3,0.7c-1.3,2.2-2.6,4.5-3.8,6.7c-0.5,0.8-1.3,1-2.1,0.6
			c-0.7-0.4-1-1.3-0.5-2.1c1.3-2.3,2.6-4.5,3.9-6.8c0.4-0.6,1.1-0.9,1.8-0.7C39.7,68.4,40.1,69,40.2,69.8z"/>
		<path class="st0" d="M78,65.2c0,1.1-1.2,1.9-2.2,1.3c-2.3-1.3-4.6-2.6-6.9-3.9c-0.7-0.4-0.9-1.3-0.5-2s1.3-1,2-0.6
			c2.3,1.3,4.7,2.7,7,4C77.8,64.2,78,64.7,78,65.2z"/>
		<path class="st0" d="M69.7,40.2c-0.7-0.1-1.3-0.5-1.5-1.1c-0.2-0.7,0.1-1.4,0.7-1.7c2.3-1.3,4.5-2.6,6.8-3.9
			c0.7-0.4,1.6-0.2,2,0.5c0.4,0.7,0.2,1.6-0.6,2.1c-2.2,1.3-4.5,2.6-6.7,3.9C70.2,40,69.9,40.1,69.7,40.2z"/>
		<path class="st0" d="M31.7,61.3c0,0.6-0.2,1.1-0.8,1.4c-2.3,1.3-4.5,2.6-6.8,3.9c-0.7,0.4-1.7,0.2-2.1-0.5c-0.4-0.7-0.2-1.6,0.6-2
			c2.3-1.3,4.5-2.6,6.8-3.9C30.5,59.4,31.7,60.1,31.7,61.3z"/>
		<path class="st0" d="M61.2,68.2c0.6,0,1,0.2,1.3,0.7c1.3,2.3,2.6,4.5,3.9,6.8c0.5,1,0,2.1-1.1,2.2c-0.6,0.1-1.1-0.1-1.5-0.7
			c-1.3-2.3-2.7-4.6-4-6.9C59.4,69.4,60.1,68.2,61.2,68.2z"/>
		<path class="st0" d="M76.6,51.5c-1.3,0-2.5,0-3.8,0c-1,0-1.6-0.6-1.6-1.5s0.7-1.5,1.6-1.5c2.6,0,5.1,0,7.7,0c0.7,0,1.2,0.4,1.5,1
			c0.2,0.6,0,1.3-0.5,1.6c-0.3,0.2-0.7,0.3-1,0.3C79.2,51.5,77.9,51.5,76.6,51.5z"/>
		<path class="st0" d="M48.4,23.3c0-1.3,0-2.6,0-3.8c0-0.9,0.6-1.6,1.5-1.6s1.5,0.7,1.5,1.6c0,2.6,0,5.2,0,7.7
			c0,0.9-0.7,1.6-1.5,1.6c-0.9,0-1.5-0.7-1.5-1.6C48.4,25.9,48.4,24.6,48.4,23.3z"/>
		<path class="st0" d="M51.4,76.7c0,1.3,0,2.6,0,3.9c0,0.7-0.4,1.2-1,1.4c-0.6,0.2-1.3,0.1-1.6-0.5c-0.2-0.3-0.3-0.6-0.3-0.9
			c0-2.6,0-5.3,0-7.9c0-0.9,0.6-1.5,1.5-1.5c0.8,0,1.5,0.6,1.5,1.5C51.4,74,51.4,75.3,51.4,76.7z"/>
		<path class="st0" d="M23.3,51.5c-1.3,0-2.6,0-3.8,0c-0.9,0-1.6-0.6-1.6-1.5c0-0.8,0.7-1.5,1.6-1.5c2.6,0,5.2,0,7.7,0
			c0.7,0,1.3,0.5,1.5,1.1s-0.1,1.3-0.7,1.6c-0.3,0.1-0.6,0.2-0.9,0.2C25.8,51.5,24.5,51.5,23.3,51.5z"/>
	</g>
</g>
</svg>
