<?xml version="1.0" encoding="utf-8"?>
<!-- Generator: Adobe Illustrator 27.9.0, SVG Export Plug-In . SVG Version: 6.00 Build 0)  -->
<svg version="1.1" id="Layer_1" xmlns="http://www.w3.org/2000/svg" xmlns:xlink="http://www.w3.org/1999/xlink" x="0px" y="0px"
	 viewBox="0 0 100 100" style="enable-background:new 0 0 100 100;" xml:space="preserve">
<style type="text/css">
	.st0{fill:#FFFFFF;}
</style>
<g>
	<g>
		<path class="st0" d="M75.5,57.4c0,7.8,0,15.7,0,23.5c0,0.9-0.2,1.1-1.1,1.1c-4.2,0-8.3,0-12.5,0c-0.9,0-1.1-0.2-1.1-1.1
			c0-11.2,0-22.4,0-33.5c0-0.9,0.3-1.6,1-2.3c4.2-3.9,8.4-7.9,12.5-11.9l0,0c0.2-0.2,0.5-0.5,0.8-0.3s0.3,0.5,0.3,0.8
			c0,4.5,0,9,0,13.5C75.5,50.6,75.5,54,75.5,57.4z"/>
		<path class="st0" d="M57.2,66.3c0,4.9,0,9.8,0,14.7c0,0.8-0.2,1-1,1c-4.2,0-8.4,0-12.6,0c-0.9,0-1-0.2-1-1.1c0-9.6,0-19.2,0-28.8
			l0,0c0-0.3-0.1-0.8,0.3-0.9c0.3-0.1,0.7,0.2,0.9,0.4c1.8,1.8,3.6,3.7,5.4,5.5c0.4,0.5,0.5,0.5,0.9,0c2-2,3.9-3.9,5.9-5.9
			c0.3-0.3,0.5-0.6,1-0.4c0.4,0.2,0.3,0.6,0.3,1C57.2,56.6,57.2,61.5,57.2,66.3z"/>
		<path class="st0" d="M38.6,65.3c0,5.2,0,10.4,0,15.6c0,0.9-0.2,1.1-1.1,1.1c-4.2,0-8.4,0-12.5,0c-0.9,0-1-0.2-1-1c0-6,0-12,0-18
			c0-0.8,0.3-1.4,0.9-2c4.2-4,8.4-8,12.6-12c0.2-0.2,0.5-0.6,0.9-0.4s0.3,0.6,0.3,0.9C38.6,54.8,38.6,60.1,38.6,65.3z"/>
		<path class="st0" d="M49.5,45.4c7.4-7.4,14.8-14.8,22.3-22.3c-0.7-0.7-1.4-1.4-2.1-2.1c-0.1-0.1-0.3-0.4-0.2-0.5
			c0-0.1,0.3-0.3,0.5-0.3c3.2-0.7,6.4-1.4,9.6-2.2c0.6-0.1,0.8,0,0.6,0.6c-0.7,3.3-1.4,6.5-2.1,9.8c-0.1,0.5-0.4,0.5-0.7,0.2
			c-0.6-0.6-1.3-1.3-1.9-1.9c-0.1-0.1-0.2-0.2-0.4-0.4c-0.1,0.2-0.2,0.4-0.3,0.5c-8.1,8.1-16.3,16.3-24.4,24.4
			c-0.6,0.6-0.6,0.6-1.1,0c-3.2-3.2-6.4-6.4-9.5-9.5c-0.1-0.1-0.2-0.3-0.3-0.4c-0.1,0-0.1,0-0.2-0.1c-0.1,0.2-0.2,0.3-0.3,0.5
			c-5.2,5.2-10.4,10.4-15.6,15.6c-0.5,0.5-0.5,0.5-1,0c-0.8-0.8-1.6-1.6-2.4-2.4c-0.3-0.3-0.3-0.5,0-0.7
			c6.3-6.3,12.6-12.6,18.9-18.9c0.3-0.3,0.5-0.3,0.7,0c3.2,3.2,6.5,6.5,9.7,9.7C49.4,45.2,49.5,45.3,49.5,45.4z"/>
	</g>
</g>
</svg>
