<?xml version="1.0" encoding="utf-8"?>
<!-- Generator: Adobe Illustrator 27.9.0, SVG Export Plug-In . SVG Version: 6.00 Build 0)  -->
<svg version="1.1" id="Layer_1" xmlns="http://www.w3.org/2000/svg" xmlns:xlink="http://www.w3.org/1999/xlink" x="0px" y="0px"
	 viewBox="0 0 100 100" style="enable-background:new 0 0 100 100;" xml:space="preserve">
<style type="text/css">
	.st0{fill:#FFFFFF;}
</style>
<g>
	<g>
		<path class="st0" d="M18,63.4c0-2.9,0-5.8,0-8.7c0-0.6,0.2-1,0.7-1.2c4.7-2.7,9.5-5.5,14.2-8.2c0.4-0.2,0.6-0.5,0.6-1
			c0-5.5,0-10.9,0-16.3c0-0.6,0.2-1,0.8-1.4c5-2.8,9.9-5.7,14.9-8.6c0.5-0.3,1-0.3,1.5,0c5,2.9,10,5.8,15,8.6
			c0.5,0.3,0.7,0.7,0.7,1.3c0,5.5,0,11,0,16.5c0,0.4,0.1,0.6,0.5,0.8c4.7,2.7,9.4,5.5,14.2,8.2c0.6,0.3,0.9,0.8,0.9,1.5
			c0,5.7,0,11.5,0,17.2c0,0.6-0.2,1-0.7,1.2c-4.9,2.8-9.9,5.7-14.8,8.6c-0.6,0.4-1.2,0.4-1.8,0c-4.7-2.7-9.4-5.5-14.1-8.2
			c-0.3-0.2-0.5-0.2-0.9,0c-4.8,2.8-9.5,5.5-14.3,8.3c-0.5,0.3-1,0.3-1.5,0c-5-2.9-9.9-5.7-14.9-8.6c-0.6-0.3-0.8-0.7-0.8-1.4
			C18,69.1,18,66.3,18,63.4z M79.9,56.2c-0.2,0.1-0.4,0.2-0.5,0.2c-4.2,2.4-8.4,4.9-12.7,7.3c-0.3,0.2-0.4,0.4-0.4,0.7
			c0,4.8,0,9.7,0,14.5c0,0.1,0,0.3,0,0.5c0.2-0.1,0.3-0.2,0.5-0.2c4.2-2.4,8.4-4.9,12.7-7.3c0.3-0.2,0.4-0.4,0.4-0.8
			c0-4.8,0-9.6,0-14.5C79.9,56.7,79.9,56.5,79.9,56.2z M19.9,56.2c0,0.2,0,0.4,0,0.5c0,4.9,0,9.7,0,14.6c0,0.3,0.1,0.5,0.4,0.6
			c4.2,2.4,8.5,4.9,12.7,7.3c0.1,0.1,0.3,0.1,0.4,0.2c0-0.2,0-0.3,0-0.5c0-4.9,0-9.7,0-14.6c0-0.3-0.1-0.5-0.4-0.7
			c-4.2-2.4-8.4-4.9-12.7-7.3C20.3,56.4,20.1,56.3,19.9,56.2z M78.9,54.5c-0.2-0.2-0.4-0.3-0.6-0.4c-4.2-2.4-8.4-4.8-12.6-7.3
			c-0.2-0.1-0.4-0.1-0.6,0c-4.2,2.4-8.5,4.9-12.7,7.3c-0.1,0.1-0.2,0.2-0.4,0.3c0.2,0.1,0.3,0.2,0.5,0.3c4.2,2.4,8.4,4.8,12.5,7.2
			c0.3,0.2,0.6,0.2,0.9,0c3.8-2.2,7.5-4.4,11.3-6.5C77.7,55.2,78.2,54.8,78.9,54.5z M50.9,38.3c0,4.9,0,9.6,0,14.4
			c4.2-2.4,8.3-4.8,12.5-7.2C59.2,43.1,55.1,40.7,50.9,38.3z M64.4,29.4c-4.2,2.4-8.3,4.8-12.5,7.2c4.2,2.4,8.3,4.8,12.5,7.2
			C64.4,39,64.4,34.2,64.4,29.4z M35.4,29.4c0,4.8,0,9.6,0,14.4c4.2-2.4,8.3-4.8,12.5-7.2C43.7,34.2,39.6,31.8,35.4,29.4z
			 M35.4,79.6c4.2-2.4,8.3-4.8,12.5-7.2c-4.2-2.4-8.3-4.8-12.5-7.2C35.4,70,35.4,74.7,35.4,79.6z M36.4,63.4
			c4.2,2.4,8.3,4.8,12.5,7.2c0-4.8,0-9.6,0-14.4C44.7,58.6,40.6,61,36.4,63.4z M36.4,45.5c4.2,2.4,8.3,4.8,12.5,7.2
			c0-4.8,0-9.6,0-14.4C44.7,40.7,40.6,43.1,36.4,45.5z"/>
	</g>
</g>
</svg>
